<svg xmlns="http://www.w3.org/2000/svg" version="1.1" xmlns:xlink="http://www.w3.org/1999/xlink" xmlns:svgjs="http://svgjs.com/svgjs" width="1440" height="560" preserveAspectRatio="none" viewBox="0 0 1440 560"><g mask="url(&quot;#SvgjsMask1242&quot;)" fill="none"><rect width="1440" height="560" x="0" y="0" fill="url(#SvgjsLinearGradient1243)"></rect><g mask="url(&quot;#SvgjsMask1244&quot;)"><path d="M1235 481L1235 533L1261 559L1443 559" stroke-width="4.33" stroke="rgba(0, 0, 0, 1)"></path><path d="M1228.5 481 a6.5 6.5 0 1 0 13 0 a6.5 6.5 0 1 0 -13 0zM1436.5 559 a6.5 6.5 0 1 0 13 0 a6.5 6.5 0 1 0 -13 0z" fill="rgba(0, 0, 0, 1)"></path><path d="M299 195L299 169L247 117L13 117" stroke-width="4.33" stroke="rgba(0, 0, 0, 1)"></path><path d="M292.5 195 a6.5 6.5 0 1 0 13 0 a6.5 6.5 0 1 0 -13 0zM6.5 117 a6.5 6.5 0 1 0 13 0 a6.5 6.5 0 1 0 -13 0z" fill="rgba(0, 0, 0, 1)"></path><path d="M1001 507L1001 533L1027 559L1235 559" stroke-width="4.33" stroke="rgba(0, 0, 0, 1)"></path><path d="M994.5 507 a6.5 6.5 0 1 0 13 0 a6.5 6.5 0 1 0 -13 0zM1228.5 559 a6.5 6.5 0 1 0 13 0 a6.5 6.5 0 1 0 -13 0z" fill="rgba(0, 0, 0, 1)"></path><path d="M637 273L377 13L143 13" stroke-width="4.33" stroke="rgba(0, 0, 0, 1)"></path><path d="M630.5 273 a6.5 6.5 0 1 0 13 0 a6.5 6.5 0 1 0 -13 0zM136.5 13 a6.5 6.5 0 1 0 13 0 a6.5 6.5 0 1 0 -13 0z" fill="rgba(0, 0, 0, 1)"></path><path d="M429 559L13 143" stroke-width="4.33" stroke="rgba(0, 0, 0, 1)"></path><path d="M422.5 559 a6.5 6.5 0 1 0 13 0 a6.5 6.5 0 1 0 -13 0zM6.5 143 a6.5 6.5 0 1 0 13 0 a6.5 6.5 0 1 0 -13 0z" fill="rgba(0, 0, 0, 1)"></path><path d="M793 91L1053 351L1053 533" stroke-width="4.33" stroke="rgba(0, 0, 0, 1)"></path><path d="M786.5 91 a6.5 6.5 0 1 0 13 0 a6.5 6.5 0 1 0 -13 0zM1046.5 533 a6.5 6.5 0 1 0 13 0 a6.5 6.5 0 1 0 -13 0z" fill="rgba(0, 0, 0, 1)"></path><path d="M507 559L585 481L1001 481" stroke-width="4.33" stroke="rgba(0, 0, 0, 1)"></path><path d="M500.5 559 a6.5 6.5 0 1 0 13 0 a6.5 6.5 0 1 0 -13 0zM994.5 481 a6.5 6.5 0 1 0 13 0 a6.5 6.5 0 1 0 -13 0z" fill="rgba(0, 0, 0, 1)"></path><path d="M1105 169L897 169L741 13L611 13" stroke-width="4.33" stroke="rgba(0, 0, 0, 1)"></path><path d="M1098.5 169 a6.5 6.5 0 1 0 13 0 a6.5 6.5 0 1 0 -13 0zM604.5 13 a6.5 6.5 0 1 0 13 0 a6.5 6.5 0 1 0 -13 0z" fill="rgba(0, 0, 0, 1)"></path><path d="M533 39L559 39L819 299L923 299L1027 403" stroke-width="4.33" stroke="rgba(0, 0, 0, 1)"></path><path d="M526.5 39 a6.5 6.5 0 1 0 13 0 a6.5 6.5 0 1 0 -13 0zM1020.5 403 a6.5 6.5 0 1 0 13 0 a6.5 6.5 0 1 0 -13 0z" fill="rgba(0, 0, 0, 1)"></path><path d="M1079 39L975 143L897 143L767 13" stroke-width="4.33" stroke="rgba(0, 0, 0, 1)"></path><path d="M1072.5 39 a6.5 6.5 0 1 0 13 0 a6.5 6.5 0 1 0 -13 0zM760.5 13 a6.5 6.5 0 1 0 13 0 a6.5 6.5 0 1 0 -13 0z" fill="rgba(0, 0, 0, 1)"></path><path d="M1417 117L1261 273L1261 299L1339 377L1443 377" stroke-width="4.33" stroke="rgba(0, 0, 0, 1)"></path><path d="M1410.5 117 a6.5 6.5 0 1 0 13 0 a6.5 6.5 0 1 0 -13 0zM1436.5 377 a6.5 6.5 0 1 0 13 0 a6.5 6.5 0 1 0 -13 0z" fill="rgba(0, 0, 0, 1)"></path><path d="M39 481L13 507L13 559" stroke-width="4.33" stroke="rgba(0, 0, 0, 1)"></path><path d="M32.5 481 a6.5 6.5 0 1 0 13 0 a6.5 6.5 0 1 0 -13 0zM6.5 559 a6.5 6.5 0 1 0 13 0 a6.5 6.5 0 1 0 -13 0z" fill="rgba(0, 0, 0, 1)"></path><path d="M195 559L195 351L13 169" stroke-width="4.33" stroke="rgba(0, 0, 0, 1)"></path><path d="M188.5 559 a6.5 6.5 0 1 0 13 0 a6.5 6.5 0 1 0 -13 0zM6.5 169 a6.5 6.5 0 1 0 13 0 a6.5 6.5 0 1 0 -13 0z" fill="rgba(0, 0, 0, 1)"></path><path d="M689 455L819 325L923 325L1027 429L1027 533" stroke-width="4.33" stroke="rgba(0, 0, 0, 1)"></path><path d="M682.5 455 a6.5 6.5 0 1 0 13 0 a6.5 6.5 0 1 0 -13 0zM1020.5 533 a6.5 6.5 0 1 0 13 0 a6.5 6.5 0 1 0 -13 0z" fill="rgba(0, 0, 0, 1)"></path><path d="M1079 377L1079 533" stroke-width="4.33" stroke="rgba(0, 0, 0, 1)"></path><path d="M1072.5 377 a6.5 6.5 0 1 0 13 0 a6.5 6.5 0 1 0 -13 0zM1072.5 533 a6.5 6.5 0 1 0 13 0 a6.5 6.5 0 1 0 -13 0z" fill="rgba(0, 0, 0, 1)"></path><path d="M481 403L611 273" stroke-width="4.33" stroke="rgba(0, 0, 0, 1)"></path><path d="M474.5 403 a6.5 6.5 0 1 0 13 0 a6.5 6.5 0 1 0 -13 0zM604.5 273 a6.5 6.5 0 1 0 13 0 a6.5 6.5 0 1 0 -13 0z" fill="rgba(0, 0, 0, 1)"></path><path d="M169 247L247 169L247 143" stroke-width="4.33" stroke="rgba(0, 0, 0, 1)"></path><path d="M162.5 247 a6.5 6.5 0 1 0 13 0 a6.5 6.5 0 1 0 -13 0zM240.5 143 a6.5 6.5 0 1 0 13 0 a6.5 6.5 0 1 0 -13 0z" fill="rgba(0, 0, 0, 1)"></path><path d="M403 247L403 65L377 39L91 39" stroke-width="4.33" stroke="rgba(0, 0, 0, 1)"></path><path d="M396.5 247 a6.5 6.5 0 1 0 13 0 a6.5 6.5 0 1 0 -13 0zM84.5 39 a6.5 6.5 0 1 0 13 0 a6.5 6.5 0 1 0 -13 0z" fill="rgba(0, 0, 0, 1)"></path><path d="M1313 39L1443 39" stroke-width="4.33" stroke="rgba(0, 0, 0, 1)"></path><path d="M1306.5 39 a6.5 6.5 0 1 0 13 0 a6.5 6.5 0 1 0 -13 0zM1436.5 39 a6.5 6.5 0 1 0 13 0 a6.5 6.5 0 1 0 -13 0z" fill="rgba(0, 0, 0, 1)"></path><path d="M143 169L117 195L117 221L143 247" stroke-width="4.33" stroke="rgba(0, 0, 0, 1)"></path><path d="M136.5 169 a6.5 6.5 0 1 0 13 0 a6.5 6.5 0 1 0 -13 0zM136.5 247 a6.5 6.5 0 1 0 13 0 a6.5 6.5 0 1 0 -13 0z" fill="rgba(0, 0, 0, 1)"></path><path d="M585 195L637 247L663 247L689 221L715 221L793 299L793 325L663 455L533 455" stroke-width="4.33" stroke="rgba(0, 0, 0, 1)"></path><path d="M578.5 195 a6.5 6.5 0 1 0 13 0 a6.5 6.5 0 1 0 -13 0zM526.5 455 a6.5 6.5 0 1 0 13 0 a6.5 6.5 0 1 0 -13 0z" fill="rgba(0, 0, 0, 1)"></path><path d="M1079 143L1001 143" stroke-width="4.33" stroke="rgba(0, 0, 0, 1)"></path><path d="M1072.5 143 a6.5 6.5 0 1 0 13 0 a6.5 6.5 0 1 0 -13 0zM994.5 143 a6.5 6.5 0 1 0 13 0 a6.5 6.5 0 1 0 -13 0z" fill="rgba(0, 0, 0, 1)"></path><path d="M507 507L533 481L559 481" stroke-width="4.33" stroke="rgba(0, 0, 0, 1)"></path><path d="M500.5 507 a6.5 6.5 0 1 0 13 0 a6.5 6.5 0 1 0 -13 0zM552.5 481 a6.5 6.5 0 1 0 13 0 a6.5 6.5 0 1 0 -13 0z" fill="rgba(0, 0, 0, 1)"></path><path d="M247 325L247 195L273 169" stroke-width="4.33" stroke="rgba(0, 0, 0, 1)"></path><path d="M240.5 325 a6.5 6.5 0 1 0 13 0 a6.5 6.5 0 1 0 -13 0zM266.5 169 a6.5 6.5 0 1 0 13 0 a6.5 6.5 0 1 0 -13 0z" fill="rgba(0, 0, 0, 1)"></path><path d="M1313 169L1339 143L1365 143L1443 65" stroke-width="4.33" stroke="rgba(0, 0, 0, 1)"></path><path d="M1306.5 169 a6.5 6.5 0 1 0 13 0 a6.5 6.5 0 1 0 -13 0zM1436.5 65 a6.5 6.5 0 1 0 13 0 a6.5 6.5 0 1 0 -13 0z" fill="rgba(0, 0, 0, 1)"></path><path d="M1131 455L1131 247L1287 91L1287 65L1235 13L1183 13" stroke-width="4.33" stroke="rgba(0, 0, 0, 1)"></path><path d="M1124.5 455 a6.5 6.5 0 1 0 13 0 a6.5 6.5 0 1 0 -13 0zM1176.5 13 a6.5 6.5 0 1 0 13 0 a6.5 6.5 0 1 0 -13 0z" fill="rgba(0, 0, 0, 1)"></path><path d="M273 195L273 325L247 351" stroke-width="4.33" stroke="rgba(0, 0, 0, 1)"></path><path d="M266.5 195 a6.5 6.5 0 1 0 13 0 a6.5 6.5 0 1 0 -13 0zM240.5 351 a6.5 6.5 0 1 0 13 0 a6.5 6.5 0 1 0 -13 0z" fill="rgba(0, 0, 0, 1)"></path><path d="M611 533L559 533L533 559" stroke-width="4.33" stroke="rgba(0, 0, 0, 1)"></path><path d="M604.5 533 a6.5 6.5 0 1 0 13 0 a6.5 6.5 0 1 0 -13 0zM526.5 559 a6.5 6.5 0 1 0 13 0 a6.5 6.5 0 1 0 -13 0z" fill="rgba(0, 0, 0, 1)"></path><path d="M871 247L845 273L819 273L559 13L403 13" stroke-width="4.33" stroke="rgba(0, 0, 0, 1)"></path><path d="M864.5 247 a6.5 6.5 0 1 0 13 0 a6.5 6.5 0 1 0 -13 0zM396.5 13 a6.5 6.5 0 1 0 13 0 a6.5 6.5 0 1 0 -13 0z" fill="rgba(0, 0, 0, 1)"></path><path d="M1183 377L1183 481L1131 533L1105 533" stroke-width="4.33" stroke="rgba(0, 0, 0, 1)"></path><path d="M1176.5 377 a6.5 6.5 0 1 0 13 0 a6.5 6.5 0 1 0 -13 0zM1098.5 533 a6.5 6.5 0 1 0 13 0 a6.5 6.5 0 1 0 -13 0z" fill="rgba(0, 0, 0, 1)"></path><path d="M975 507L585 507" stroke-width="4.33" stroke="rgba(0, 0, 0, 1)"></path><path d="M968.5 507 a6.5 6.5 0 1 0 13 0 a6.5 6.5 0 1 0 -13 0zM578.5 507 a6.5 6.5 0 1 0 13 0 a6.5 6.5 0 1 0 -13 0z" fill="rgba(0, 0, 0, 1)"></path><path d="M689 273L663 273L481 455L351 455L273 377L273 351L325 299" stroke-width="4.33" stroke="rgba(0, 0, 0, 1)"></path><path d="M682.5 273 a6.5 6.5 0 1 0 13 0 a6.5 6.5 0 1 0 -13 0zM318.5 299 a6.5 6.5 0 1 0 13 0 a6.5 6.5 0 1 0 -13 0z" fill="rgba(0, 0, 0, 1)"></path><path d="M1079 221L1027 273L1001 273L949 221L949 195" stroke-width="4.33" stroke="rgba(0, 0, 0, 1)"></path><path d="M1072.5 221 a6.5 6.5 0 1 0 13 0 a6.5 6.5 0 1 0 -13 0zM942.5 195 a6.5 6.5 0 1 0 13 0 a6.5 6.5 0 1 0 -13 0z" fill="rgba(0, 0, 0, 1)"></path><path d="M403 377L403 273L325 195L325 143L247 65L221 65L195 91L65 91" stroke-width="4.33" stroke="rgba(0, 0, 0, 1)"></path><path d="M396.5 377 a6.5 6.5 0 1 0 13 0 a6.5 6.5 0 1 0 -13 0zM58.5 91 a6.5 6.5 0 1 0 13 0 a6.5 6.5 0 1 0 -13 0z" fill="rgba(0, 0, 0, 1)"></path><path d="M1131 507L1157 481L1157 247L1339 65L1391 65" stroke-width="4.33" stroke="rgba(0, 0, 0, 1)"></path><path d="M1124.5 507 a6.5 6.5 0 1 0 13 0 a6.5 6.5 0 1 0 -13 0zM1384.5 65 a6.5 6.5 0 1 0 13 0 a6.5 6.5 0 1 0 -13 0z" fill="rgba(0, 0, 0, 1)"></path><path d="M1261 169L1261 247L1183 325L1183 351L1313 481L1443 481" stroke-width="4.33" stroke="rgba(0, 0, 0, 1)"></path><path d="M1254.5 169 a6.5 6.5 0 1 0 13 0 a6.5 6.5 0 1 0 -13 0zM1436.5 481 a6.5 6.5 0 1 0 13 0 a6.5 6.5 0 1 0 -13 0z" fill="rgba(0, 0, 0, 1)"></path><path d="M117 403L169 455L169 559" stroke-width="4.33" stroke="rgba(0, 0, 0, 1)"></path><path d="M110.5 403 a6.5 6.5 0 1 0 13 0 a6.5 6.5 0 1 0 -13 0zM162.5 559 a6.5 6.5 0 1 0 13 0 a6.5 6.5 0 1 0 -13 0z" fill="rgba(0, 0, 0, 1)"></path><path d="M1287 143L1313 143L1365 91L1391 91" stroke-width="4.33" stroke="rgba(0, 0, 0, 1)"></path><path d="M1280.5 143 a6.5 6.5 0 1 0 13 0 a6.5 6.5 0 1 0 -13 0zM1384.5 91 a6.5 6.5 0 1 0 13 0 a6.5 6.5 0 1 0 -13 0z" fill="rgba(0, 0, 0, 1)"></path><path d="M351 377L299 377" stroke-width="4.33" stroke="rgba(0, 0, 0, 1)"></path><path d="M344.5 377 a6.5 6.5 0 1 0 13 0 a6.5 6.5 0 1 0 -13 0zM292.5 377 a6.5 6.5 0 1 0 13 0 a6.5 6.5 0 1 0 -13 0z" fill="rgba(0, 0, 0, 1)"></path><path d="M1027 299L1053 273L1105 273" stroke-width="4.33" stroke="rgba(0, 0, 0, 1)"></path><path d="M1020.5 299 a6.5 6.5 0 1 0 13 0 a6.5 6.5 0 1 0 -13 0zM1098.5 273 a6.5 6.5 0 1 0 13 0 a6.5 6.5 0 1 0 -13 0z" fill="rgba(0, 0, 0, 1)"></path><path d="M663 91L663 39" stroke-width="4.33" stroke="rgba(0, 0, 0, 1)"></path><path d="M656.5 91 a6.5 6.5 0 1 0 13 0 a6.5 6.5 0 1 0 -13 0zM656.5 39 a6.5 6.5 0 1 0 13 0 a6.5 6.5 0 1 0 -13 0z" fill="rgba(0, 0, 0, 1)"></path><path d="M403 481L507 481" stroke-width="4.33" stroke="rgba(0, 0, 0, 1)"></path><path d="M396.5 481 a6.5 6.5 0 1 0 13 0 a6.5 6.5 0 1 0 -13 0zM500.5 481 a6.5 6.5 0 1 0 13 0 a6.5 6.5 0 1 0 -13 0z" fill="rgba(0, 0, 0, 1)"></path><path d="M325 507L299 533L221 533" stroke-width="4.33" stroke="rgba(0, 0, 0, 1)"></path><path d="M318.5 507 a6.5 6.5 0 1 0 13 0 a6.5 6.5 0 1 0 -13 0zM214.5 533 a6.5 6.5 0 1 0 13 0 a6.5 6.5 0 1 0 -13 0z" fill="rgba(0, 0, 0, 1)"></path><path d="M273 559L221 559" stroke-width="4.33" stroke="rgba(0, 0, 0, 1)"></path><path d="M266.5 559 a6.5 6.5 0 1 0 13 0 a6.5 6.5 0 1 0 -13 0zM214.5 559 a6.5 6.5 0 1 0 13 0 a6.5 6.5 0 1 0 -13 0z" fill="rgba(0, 0, 0, 1)"></path><path d="M559 169L481 91L481 39" stroke-width="4.33" stroke="rgba(0, 0, 0, 1)"></path><path d="M552.5 169 a6.5 6.5 0 1 0 13 0 a6.5 6.5 0 1 0 -13 0zM474.5 39 a6.5 6.5 0 1 0 13 0 a6.5 6.5 0 1 0 -13 0z" fill="rgba(0, 0, 0, 1)"></path><path d="M221 429L221 507" stroke-width="4.33" stroke="rgba(0, 0, 0, 1)"></path><path d="M214.5 429 a6.5 6.5 0 1 0 13 0 a6.5 6.5 0 1 0 -13 0zM214.5 507 a6.5 6.5 0 1 0 13 0 a6.5 6.5 0 1 0 -13 0z" fill="rgba(0, 0, 0, 1)"></path><path d="M169 143L169 221" stroke-width="4.33" stroke="rgba(0, 0, 0, 1)"></path><path d="M162.5 143 a6.5 6.5 0 1 0 13 0 a6.5 6.5 0 1 0 -13 0zM162.5 221 a6.5 6.5 0 1 0 13 0 a6.5 6.5 0 1 0 -13 0z" fill="rgba(0, 0, 0, 1)"></path><path d="M897 403L767 403L715 455" stroke-width="4.33" stroke="rgba(0, 0, 0, 1)"></path><path d="M890.5 403 a6.5 6.5 0 1 0 13 0 a6.5 6.5 0 1 0 -13 0zM708.5 455 a6.5 6.5 0 1 0 13 0 a6.5 6.5 0 1 0 -13 0z" fill="rgba(0, 0, 0, 1)"></path><path d="M1235 455L1209 481L1209 533" stroke-width="4.33" stroke="rgba(0, 0, 0, 1)"></path><path d="M1228.5 455 a6.5 6.5 0 1 0 13 0 a6.5 6.5 0 1 0 -13 0zM1202.5 533 a6.5 6.5 0 1 0 13 0 a6.5 6.5 0 1 0 -13 0z" fill="rgba(0, 0, 0, 1)"></path><path d="M273 455L299 481L325 481" stroke-width="4.33" stroke="rgba(0, 0, 0, 1)"></path><path d="M266.5 455 a6.5 6.5 0 1 0 13 0 a6.5 6.5 0 1 0 -13 0zM318.5 481 a6.5 6.5 0 1 0 13 0 a6.5 6.5 0 1 0 -13 0z" fill="rgba(0, 0, 0, 1)"></path><path d="M1235 351L1313 429L1339 429L1365 403L1443 403" stroke-width="4.33" stroke="rgba(0, 0, 0, 1)"></path><path d="M1228.5 351 a6.5 6.5 0 1 0 13 0 a6.5 6.5 0 1 0 -13 0zM1436.5 403 a6.5 6.5 0 1 0 13 0 a6.5 6.5 0 1 0 -13 0z" fill="rgba(0, 0, 0, 1)"></path><path d="M39 221L13 247L13 455" stroke-width="4.33" stroke="rgba(0, 0, 0, 1)"></path><path d="M32.5 221 a6.5 6.5 0 1 0 13 0 a6.5 6.5 0 1 0 -13 0zM6.5 455 a6.5 6.5 0 1 0 13 0 a6.5 6.5 0 1 0 -13 0z" fill="rgba(0, 0, 0, 1)"></path><path d="M481 351L481 273L533 221L533 195L481 143L429 143" stroke-width="4.33" stroke="rgba(0, 0, 0, 1)"></path><path d="M474.5 351 a6.5 6.5 0 1 0 13 0 a6.5 6.5 0 1 0 -13 0zM422.5 143 a6.5 6.5 0 1 0 13 0 a6.5 6.5 0 1 0 -13 0z" fill="rgba(0, 0, 0, 1)"></path><path d="M1027 39L1053 39L1079 13L1157 13L1235 91L1235 117L1105 247L1079 247" stroke-width="4.33" stroke="rgba(0, 0, 0, 1)"></path><path d="M1020.5 39 a6.5 6.5 0 1 0 13 0 a6.5 6.5 0 1 0 -13 0zM1072.5 247 a6.5 6.5 0 1 0 13 0 a6.5 6.5 0 1 0 -13 0z" fill="rgba(0, 0, 0, 1)"></path><path d="M377 195L377 65" stroke-width="4.33" stroke="rgba(0, 0, 0, 1)"></path><path d="M370.5 195 a6.5 6.5 0 1 0 13 0 a6.5 6.5 0 1 0 -13 0zM370.5 65 a6.5 6.5 0 1 0 13 0 a6.5 6.5 0 1 0 -13 0z" fill="rgba(0, 0, 0, 1)"></path><path d="M247 507L299 507" stroke-width="4.33" stroke="rgba(0, 0, 0, 1)"></path><path d="M240.5 507 a6.5 6.5 0 1 0 13 0 a6.5 6.5 0 1 0 -13 0zM292.5 507 a6.5 6.5 0 1 0 13 0 a6.5 6.5 0 1 0 -13 0z" fill="rgba(0, 0, 0, 1)"></path><path d="M793 117L715 39L689 39" stroke-width="4.33" stroke="rgba(0, 0, 0, 1)"></path><path d="M786.5 117 a6.5 6.5 0 1 0 13 0 a6.5 6.5 0 1 0 -13 0zM682.5 39 a6.5 6.5 0 1 0 13 0 a6.5 6.5 0 1 0 -13 0z" fill="rgba(0, 0, 0, 1)"></path><path d="M117 65L195 65" stroke-width="4.33" stroke="rgba(0, 0, 0, 1)"></path><path d="M110.5 65 a6.5 6.5 0 1 0 13 0 a6.5 6.5 0 1 0 -13 0zM188.5 65 a6.5 6.5 0 1 0 13 0 a6.5 6.5 0 1 0 -13 0z" fill="rgba(0, 0, 0, 1)"></path><path d="M117 455L39 377L39 247" stroke-width="4.33" stroke="rgba(0, 0, 0, 1)"></path><path d="M110.5 455 a6.5 6.5 0 1 0 13 0 a6.5 6.5 0 1 0 -13 0zM32.5 247 a6.5 6.5 0 1 0 13 0 a6.5 6.5 0 1 0 -13 0z" fill="rgba(0, 0, 0, 1)"></path><path d="M975 195L1027 247" stroke-width="4.33" stroke="rgba(0, 0, 0, 1)"></path><path d="M968.5 195 a6.5 6.5 0 1 0 13 0 a6.5 6.5 0 1 0 -13 0zM1020.5 247 a6.5 6.5 0 1 0 13 0 a6.5 6.5 0 1 0 -13 0z" fill="rgba(0, 0, 0, 1)"></path><path d="M65 325L143 325L169 351L169 429" stroke-width="4.33" stroke="rgba(0, 0, 0, 1)"></path><path d="M58.5 325 a6.5 6.5 0 1 0 13 0 a6.5 6.5 0 1 0 -13 0zM162.5 429 a6.5 6.5 0 1 0 13 0 a6.5 6.5 0 1 0 -13 0z" fill="rgba(0, 0, 0, 1)"></path><path d="M923 91L871 39L871 13" stroke-width="4.33" stroke="rgba(0, 0, 0, 1)"></path><path d="M916.5 91 a6.5 6.5 0 1 0 13 0 a6.5 6.5 0 1 0 -13 0zM864.5 13 a6.5 6.5 0 1 0 13 0 a6.5 6.5 0 1 0 -13 0z" fill="rgba(0, 0, 0, 1)"></path><path d="M351 403L377 377L377 299L299 221" stroke-width="4.33" stroke="rgba(0, 0, 0, 1)"></path><path d="M344.5 403 a6.5 6.5 0 1 0 13 0 a6.5 6.5 0 1 0 -13 0zM292.5 221 a6.5 6.5 0 1 0 13 0 a6.5 6.5 0 1 0 -13 0z" fill="rgba(0, 0, 0, 1)"></path><path d="M715 325L715 247" stroke-width="4.33" stroke="rgba(0, 0, 0, 1)"></path><path d="M708.5 325 a6.5 6.5 0 1 0 13 0 a6.5 6.5 0 1 0 -13 0zM708.5 247 a6.5 6.5 0 1 0 13 0 a6.5 6.5 0 1 0 -13 0z" fill="rgba(0, 0, 0, 1)"></path><path d="M533 247L559 273L559 299L507 351" stroke-width="4.33" stroke="rgba(0, 0, 0, 1)"></path><path d="M526.5 247 a6.5 6.5 0 1 0 13 0 a6.5 6.5 0 1 0 -13 0zM500.5 351 a6.5 6.5 0 1 0 13 0 a6.5 6.5 0 1 0 -13 0z" fill="rgba(0, 0, 0, 1)"></path><path d="M1053 117L1105 65L1183 65L1209 91L1209 117L1183 143L1105 143L1079 117" stroke-width="4.33" stroke="rgba(0, 0, 0, 1)"></path><path d="M1046.5 117 a6.5 6.5 0 1 0 13 0 a6.5 6.5 0 1 0 -13 0zM1072.5 117 a6.5 6.5 0 1 0 13 0 a6.5 6.5 0 1 0 -13 0z" fill="rgba(0, 0, 0, 1)"></path><path d="M429 351L455 325L455 169" stroke-width="4.33" stroke="rgba(0, 0, 0, 1)"></path><path d="M422.5 351 a6.5 6.5 0 1 0 13 0 a6.5 6.5 0 1 0 -13 0zM448.5 169 a6.5 6.5 0 1 0 13 0 a6.5 6.5 0 1 0 -13 0z" fill="rgba(0, 0, 0, 1)"></path><path d="M1105 195L1131 195L1157 169" stroke-width="4.33" stroke="rgba(0, 0, 0, 1)"></path><path d="M1098.5 195 a6.5 6.5 0 1 0 13 0 a6.5 6.5 0 1 0 -13 0zM1150.5 169 a6.5 6.5 0 1 0 13 0 a6.5 6.5 0 1 0 -13 0z" fill="rgba(0, 0, 0, 1)"></path><path d="M65 143L91 169L117 169" stroke-width="4.33" stroke="rgba(0, 0, 0, 1)"></path><path d="M58.5 143 a6.5 6.5 0 1 0 13 0 a6.5 6.5 0 1 0 -13 0zM110.5 169 a6.5 6.5 0 1 0 13 0 a6.5 6.5 0 1 0 -13 0z" fill="rgba(0, 0, 0, 1)"></path><path d="M1209 455L1209 403" stroke-width="4.33" stroke="rgba(0, 0, 0, 1)"></path><path d="M1202.5 455 a6.5 6.5 0 1 0 13 0 a6.5 6.5 0 1 0 -13 0zM1202.5 403 a6.5 6.5 0 1 0 13 0 a6.5 6.5 0 1 0 -13 0z" fill="rgba(0, 0, 0, 1)"></path><path d="M611 429L689 351L741 351L767 325L767 299L741 273" stroke-width="4.33" stroke="rgba(0, 0, 0, 1)"></path><path d="M604.5 429 a6.5 6.5 0 1 0 13 0 a6.5 6.5 0 1 0 -13 0zM734.5 273 a6.5 6.5 0 1 0 13 0 a6.5 6.5 0 1 0 -13 0z" fill="rgba(0, 0, 0, 1)"></path><path d="M975 39L897 39" stroke-width="4.33" stroke="rgba(0, 0, 0, 1)"></path><path d="M968.5 39 a6.5 6.5 0 1 0 13 0 a6.5 6.5 0 1 0 -13 0zM890.5 39 a6.5 6.5 0 1 0 13 0 a6.5 6.5 0 1 0 -13 0z" fill="rgba(0, 0, 0, 1)"></path><path d="M507 221L507 195L481 169" stroke-width="4.33" stroke="rgba(0, 0, 0, 1)"></path><path d="M500.5 221 a6.5 6.5 0 1 0 13 0 a6.5 6.5 0 1 0 -13 0zM474.5 169 a6.5 6.5 0 1 0 13 0 a6.5 6.5 0 1 0 -13 0z" fill="rgba(0, 0, 0, 1)"></path><path d="M1105 299L1079 325L1053 325" stroke-width="4.33" stroke="rgba(0, 0, 0, 1)"></path><path d="M1098.5 299 a6.5 6.5 0 1 0 13 0 a6.5 6.5 0 1 0 -13 0zM1046.5 325 a6.5 6.5 0 1 0 13 0 a6.5 6.5 0 1 0 -13 0z" fill="rgba(0, 0, 0, 1)"></path><path d="M637 377L585 429L559 429" stroke-width="4.33" stroke="rgba(0, 0, 0, 1)"></path><path d="M630.5 377 a6.5 6.5 0 1 0 13 0 a6.5 6.5 0 1 0 -13 0zM552.5 429 a6.5 6.5 0 1 0 13 0 a6.5 6.5 0 1 0 -13 0z" fill="rgba(0, 0, 0, 1)"></path><path d="M1417 169L1417 247L1339 325L1339 351" stroke-width="4.33" stroke="rgba(0, 0, 0, 1)"></path><path d="M1410.5 169 a6.5 6.5 0 1 0 13 0 a6.5 6.5 0 1 0 -13 0zM1332.5 351 a6.5 6.5 0 1 0 13 0 a6.5 6.5 0 1 0 -13 0z" fill="rgba(0, 0, 0, 1)"></path><path d="M325 91L325 117L351 143L351 195" stroke-width="4.33" stroke="rgba(0, 0, 0, 1)"></path><path d="M318.5 91 a6.5 6.5 0 1 0 13 0 a6.5 6.5 0 1 0 -13 0zM344.5 195 a6.5 6.5 0 1 0 13 0 a6.5 6.5 0 1 0 -13 0z" fill="rgba(0, 0, 0, 1)"></path><path d="M1417 143L1443 169L1443 273" stroke-width="4.33" stroke="rgba(0, 0, 0, 1)"></path><path d="M1410.5 143 a6.5 6.5 0 1 0 13 0 a6.5 6.5 0 1 0 -13 0zM1436.5 273 a6.5 6.5 0 1 0 13 0 a6.5 6.5 0 1 0 -13 0z" fill="rgba(0, 0, 0, 1)"></path><path d="M585 403L585 377L637 325L663 325" stroke-width="4.33" stroke="rgba(0, 0, 0, 1)"></path><path d="M578.5 403 a6.5 6.5 0 1 0 13 0 a6.5 6.5 0 1 0 -13 0zM656.5 325 a6.5 6.5 0 1 0 13 0 a6.5 6.5 0 1 0 -13 0z" fill="rgba(0, 0, 0, 1)"></path><path d="M1001 351L949 299L949 273L871 195L845 195L819 221L793 221L689 117L689 65" stroke-width="4.33" stroke="rgba(0, 0, 0, 1)"></path><path d="M994.5 351 a6.5 6.5 0 1 0 13 0 a6.5 6.5 0 1 0 -13 0zM682.5 65 a6.5 6.5 0 1 0 13 0 a6.5 6.5 0 1 0 -13 0z" fill="rgba(0, 0, 0, 1)"></path><path d="M299 351L351 351" stroke-width="4.33" stroke="rgba(0, 0, 0, 1)"></path><path d="M292.5 351 a6.5 6.5 0 1 0 13 0 a6.5 6.5 0 1 0 -13 0zM344.5 351 a6.5 6.5 0 1 0 13 0 a6.5 6.5 0 1 0 -13 0z" fill="rgba(0, 0, 0, 1)"></path><path d="M923 65L1027 65" stroke-width="4.33" stroke="rgba(0, 0, 0, 1)"></path><path d="M916.5 65 a6.5 6.5 0 1 0 13 0 a6.5 6.5 0 1 0 -13 0zM1020.5 65 a6.5 6.5 0 1 0 13 0 a6.5 6.5 0 1 0 -13 0z" fill="rgba(0, 0, 0, 1)"></path><path d="M559 91L585 91L689 195" stroke-width="4.33" stroke="rgba(0, 0, 0, 1)"></path><path d="M552.5 91 a6.5 6.5 0 1 0 13 0 a6.5 6.5 0 1 0 -13 0zM682.5 195 a6.5 6.5 0 1 0 13 0 a6.5 6.5 0 1 0 -13 0z" fill="rgba(0, 0, 0, 1)"></path><path d="M1365 13L1261 13" stroke-width="4.33" stroke="rgba(0, 0, 0, 1)"></path><path d="M1358.5 13 a6.5 6.5 0 1 0 13 0 a6.5 6.5 0 1 0 -13 0zM1254.5 13 a6.5 6.5 0 1 0 13 0 a6.5 6.5 0 1 0 -13 0z" fill="rgba(0, 0, 0, 1)"></path><path d="M1261 65L1235 65L1209 39" stroke-width="4.33" stroke="rgba(0, 0, 0, 1)"></path><path d="M1254.5 65 a6.5 6.5 0 1 0 13 0 a6.5 6.5 0 1 0 -13 0zM1202.5 39 a6.5 6.5 0 1 0 13 0 a6.5 6.5 0 1 0 -13 0z" fill="rgba(0, 0, 0, 1)"></path><path d="M1235 195L1209 221L1209 273L1183 299" stroke-width="4.33" stroke="rgba(0, 0, 0, 1)"></path><path d="M1228.5 195 a6.5 6.5 0 1 0 13 0 a6.5 6.5 0 1 0 -13 0zM1176.5 299 a6.5 6.5 0 1 0 13 0 a6.5 6.5 0 1 0 -13 0z" fill="rgba(0, 0, 0, 1)"></path><path d="M559 117L533 91L507 91" stroke-width="4.33" stroke="rgba(0, 0, 0, 1)"></path><path d="M552.5 117 a6.5 6.5 0 1 0 13 0 a6.5 6.5 0 1 0 -13 0zM500.5 91 a6.5 6.5 0 1 0 13 0 a6.5 6.5 0 1 0 -13 0z" fill="rgba(0, 0, 0, 1)"></path><path d="M91 481L65 507L65 559" stroke-width="4.33" stroke="rgba(0, 0, 0, 1)"></path><path d="M84.5 481 a6.5 6.5 0 1 0 13 0 a6.5 6.5 0 1 0 -13 0zM58.5 559 a6.5 6.5 0 1 0 13 0 a6.5 6.5 0 1 0 -13 0z" fill="rgba(0, 0, 0, 1)"></path><path d="M429 273L429 325" stroke-width="4.33" stroke="rgba(0, 0, 0, 1)"></path><path d="M422.5 273 a6.5 6.5 0 1 0 13 0 a6.5 6.5 0 1 0 -13 0zM422.5 325 a6.5 6.5 0 1 0 13 0 a6.5 6.5 0 1 0 -13 0z" fill="rgba(0, 0, 0, 1)"></path><path d="M1339 507L1443 507" stroke-width="4.33" stroke="rgba(0, 0, 0, 1)"></path><path d="M1332.5 507 a6.5 6.5 0 1 0 13 0 a6.5 6.5 0 1 0 -13 0zM1436.5 507 a6.5 6.5 0 1 0 13 0 a6.5 6.5 0 1 0 -13 0z" fill="rgba(0, 0, 0, 1)"></path><path d="M1287 533L1417 533" stroke-width="4.33" stroke="rgba(0, 0, 0, 1)"></path><path d="M1280.5 533 a6.5 6.5 0 1 0 13 0 a6.5 6.5 0 1 0 -13 0zM1410.5 533 a6.5 6.5 0 1 0 13 0 a6.5 6.5 0 1 0 -13 0z" fill="rgba(0, 0, 0, 1)"></path><path d="M351 65L325 65L299 91" stroke-width="4.33" stroke="rgba(0, 0, 0, 1)"></path><path d="M344.5 65 a6.5 6.5 0 1 0 13 0 a6.5 6.5 0 1 0 -13 0zM292.5 91 a6.5 6.5 0 1 0 13 0 a6.5 6.5 0 1 0 -13 0z" fill="rgba(0, 0, 0, 1)"></path><path d="M1391 325L1417 351L1443 351" stroke-width="4.33" stroke="rgba(0, 0, 0, 1)"></path><path d="M1384.5 325 a6.5 6.5 0 1 0 13 0 a6.5 6.5 0 1 0 -13 0zM1436.5 351 a6.5 6.5 0 1 0 13 0 a6.5 6.5 0 1 0 -13 0z" fill="rgba(0, 0, 0, 1)"></path><path d="M897 351L819 351L793 377" stroke-width="4.33" stroke="rgba(0, 0, 0, 1)"></path><path d="M890.5 351 a6.5 6.5 0 1 0 13 0 a6.5 6.5 0 1 0 -13 0zM786.5 377 a6.5 6.5 0 1 0 13 0 a6.5 6.5 0 1 0 -13 0z" fill="rgba(0, 0, 0, 1)"></path><path d="M143 533L117 507L117 481L143 455" stroke-width="4.33" stroke="rgba(0, 0, 0, 1)"></path><path d="M136.5 533 a6.5 6.5 0 1 0 13 0 a6.5 6.5 0 1 0 -13 0zM136.5 455 a6.5 6.5 0 1 0 13 0 a6.5 6.5 0 1 0 -13 0z" fill="rgba(0, 0, 0, 1)"></path><path d="M117 377L65 377" stroke-width="4.33" stroke="rgba(0, 0, 0, 1)"></path><path d="M110.5 377 a6.5 6.5 0 1 0 13 0 a6.5 6.5 0 1 0 -13 0zM58.5 377 a6.5 6.5 0 1 0 13 0 a6.5 6.5 0 1 0 -13 0z" fill="rgba(0, 0, 0, 1)"></path><path d="M689 403L663 403L637 429" stroke-width="4.33" stroke="rgba(0, 0, 0, 1)"></path><path d="M682.5 403 a6.5 6.5 0 1 0 13 0 a6.5 6.5 0 1 0 -13 0zM630.5 429 a6.5 6.5 0 1 0 13 0 a6.5 6.5 0 1 0 -13 0z" fill="rgba(0, 0, 0, 1)"></path><path d="M1339 247L1391 247" stroke-width="4.33" stroke="rgba(0, 0, 0, 1)"></path><path d="M1332.5 247 a6.5 6.5 0 1 0 13 0 a6.5 6.5 0 1 0 -13 0zM1384.5 247 a6.5 6.5 0 1 0 13 0 a6.5 6.5 0 1 0 -13 0z" fill="rgba(0, 0, 0, 1)"></path><path d="M1365 455L1417 455L1443 429" stroke-width="4.33" stroke="rgba(0, 0, 0, 1)"></path><path d="M1358.5 455 a6.5 6.5 0 1 0 13 0 a6.5 6.5 0 1 0 -13 0zM1436.5 429 a6.5 6.5 0 1 0 13 0 a6.5 6.5 0 1 0 -13 0z" fill="rgba(0, 0, 0, 1)"></path><path d="M949 377L1001 429L1001 455" stroke-width="4.33" stroke="rgba(0, 0, 0, 1)"></path><path d="M942.5 377 a6.5 6.5 0 1 0 13 0 a6.5 6.5 0 1 0 -13 0zM994.5 455 a6.5 6.5 0 1 0 13 0 a6.5 6.5 0 1 0 -13 0z" fill="rgba(0, 0, 0, 1)"></path><path d="M741 117L793 169L819 169" stroke-width="4.33" stroke="rgba(0, 0, 0, 1)"></path><path d="M734.5 117 a6.5 6.5 0 1 0 13 0 a6.5 6.5 0 1 0 -13 0zM812.5 169 a6.5 6.5 0 1 0 13 0 a6.5 6.5 0 1 0 -13 0z" fill="rgba(0, 0, 0, 1)"></path><path d="M611 559L637 533L715 533L741 559L871 559L897 533L923 533" stroke-width="4.33" stroke="rgba(0, 0, 0, 1)"></path><path d="M604.5 559 a6.5 6.5 0 1 0 13 0 a6.5 6.5 0 1 0 -13 0zM916.5 533 a6.5 6.5 0 1 0 13 0 a6.5 6.5 0 1 0 -13 0z" fill="rgba(0, 0, 0, 1)"></path><path d="M247 429L247 403L221 377" stroke-width="4.33" stroke="rgba(0, 0, 0, 1)"></path><path d="M240.5 429 a6.5 6.5 0 1 0 13 0 a6.5 6.5 0 1 0 -13 0zM214.5 377 a6.5 6.5 0 1 0 13 0 a6.5 6.5 0 1 0 -13 0z" fill="rgba(0, 0, 0, 1)"></path><path d="M949 91L1001 91" stroke-width="4.33" stroke="rgba(0, 0, 0, 1)"></path><path d="M942.5 91 a6.5 6.5 0 1 0 13 0 a6.5 6.5 0 1 0 -13 0zM994.5 91 a6.5 6.5 0 1 0 13 0 a6.5 6.5 0 1 0 -13 0z" fill="rgba(0, 0, 0, 1)"></path><path d="M455 507L481 533L481 559" stroke-width="4.33" stroke="rgba(0, 0, 0, 1)"></path><path d="M448.5 507 a6.5 6.5 0 1 0 13 0 a6.5 6.5 0 1 0 -13 0zM474.5 559 a6.5 6.5 0 1 0 13 0 a6.5 6.5 0 1 0 -13 0z" fill="rgba(0, 0, 0, 1)"></path><path d="M1105 91L1183 91" stroke-width="4.33" stroke="rgba(0, 0, 0, 1)"></path><path d="M1098.5 91 a6.5 6.5 0 1 0 13 0 a6.5 6.5 0 1 0 -13 0zM1176.5 91 a6.5 6.5 0 1 0 13 0 a6.5 6.5 0 1 0 -13 0z" fill="rgba(0, 0, 0, 1)"></path><path d="M897 377L923 377L975 429L975 455" stroke-width="4.33" stroke="rgba(0, 0, 0, 1)"></path><path d="M890.5 377 a6.5 6.5 0 1 0 13 0 a6.5 6.5 0 1 0 -13 0zM968.5 455 a6.5 6.5 0 1 0 13 0 a6.5 6.5 0 1 0 -13 0z" fill="rgba(0, 0, 0, 1)"></path><path d="M871 377L819 377" stroke-width="4.33" stroke="rgba(0, 0, 0, 1)"></path><path d="M864.5 377 a6.5 6.5 0 1 0 13 0 a6.5 6.5 0 1 0 -13 0zM812.5 377 a6.5 6.5 0 1 0 13 0 a6.5 6.5 0 1 0 -13 0z" fill="rgba(0, 0, 0, 1)"></path><path d="M1443 143L1443 91" stroke-width="4.33" stroke="rgba(0, 0, 0, 1)"></path><path d="M1436.5 143 a6.5 6.5 0 1 0 13 0 a6.5 6.5 0 1 0 -13 0zM1436.5 91 a6.5 6.5 0 1 0 13 0 a6.5 6.5 0 1 0 -13 0z" fill="rgba(0, 0, 0, 1)"></path><path d="M1391 169L1391 221" stroke-width="4.33" stroke="rgba(0, 0, 0, 1)"></path><path d="M1384.5 169 a6.5 6.5 0 1 0 13 0 a6.5 6.5 0 1 0 -13 0zM1384.5 221 a6.5 6.5 0 1 0 13 0 a6.5 6.5 0 1 0 -13 0z" fill="rgba(0, 0, 0, 1)"></path><path d="M1079 195L1001 195" stroke-width="4.33" stroke="rgba(0, 0, 0, 1)"></path><path d="M1072.5 195 a6.5 6.5 0 1 0 13 0 a6.5 6.5 0 1 0 -13 0zM994.5 195 a6.5 6.5 0 1 0 13 0 a6.5 6.5 0 1 0 -13 0z" fill="rgba(0, 0, 0, 1)"></path><path d="M1157 117L1105 117" stroke-width="4.33" stroke="rgba(0, 0, 0, 1)"></path><path d="M1150.5 117 a6.5 6.5 0 1 0 13 0 a6.5 6.5 0 1 0 -13 0zM1098.5 117 a6.5 6.5 0 1 0 13 0 a6.5 6.5 0 1 0 -13 0z" fill="rgba(0, 0, 0, 1)"></path><path d="M793 533L871 533" stroke-width="4.33" stroke="rgba(0, 0, 0, 1)"></path><path d="M786.5 533 a6.5 6.5 0 1 0 13 0 a6.5 6.5 0 1 0 -13 0zM864.5 533 a6.5 6.5 0 1 0 13 0 a6.5 6.5 0 1 0 -13 0z" fill="rgba(0, 0, 0, 1)"></path><path d="M611 169L585 143L559 143" stroke-width="4.33" stroke="rgba(0, 0, 0, 1)"></path><path d="M604.5 169 a6.5 6.5 0 1 0 13 0 a6.5 6.5 0 1 0 -13 0zM552.5 143 a6.5 6.5 0 1 0 13 0 a6.5 6.5 0 1 0 -13 0z" fill="rgba(0, 0, 0, 1)"></path><path d="M143 559L91 559" stroke-width="4.33" stroke="rgba(0, 0, 0, 1)"></path><path d="M136.5 559 a6.5 6.5 0 1 0 13 0 a6.5 6.5 0 1 0 -13 0zM84.5 559 a6.5 6.5 0 1 0 13 0 a6.5 6.5 0 1 0 -13 0z" fill="rgba(0, 0, 0, 1)"></path><path d="M923 13L975 13" stroke-width="4.33" stroke="rgba(0, 0, 0, 1)"></path><path d="M916.5 13 a6.5 6.5 0 1 0 13 0 a6.5 6.5 0 1 0 -13 0zM968.5 13 a6.5 6.5 0 1 0 13 0 a6.5 6.5 0 1 0 -13 0z" fill="rgba(0, 0, 0, 1)"></path></g></g><defs><mask id="SvgjsMask1242"><rect width="1440" height="560" fill="#ffffff"></rect></mask><linearGradient x1="50%" y1="100%" x2="50%" y2="0%" gradientUnits="userSpaceOnUse" id="SvgjsLinearGradient1243"><stop stop-color="#0e2a47" offset="0"></stop><stop stop-color="rgba(255, 255, 255, 1)" offset="1"></stop></linearGradient><mask id="SvgjsMask1244"><rect width="1440" height="560" fill="white"></rect><path d="M1231.75 481 a3.25 3.25 0 1 0 6.5 0 a3.25 3.25 0 1 0 -6.5 0zM1439.75 559 a3.25 3.25 0 1 0 6.5 0 a3.25 3.25 0 1 0 -6.5 0z" fill="black"></path><path d="M295.75 195 a3.25 3.25 0 1 0 6.5 0 a3.25 3.25 0 1 0 -6.5 0zM9.75 117 a3.25 3.25 0 1 0 6.5 0 a3.25 3.25 0 1 0 -6.5 0z" fill="black"></path><path d="M997.75 507 a3.25 3.25 0 1 0 6.5 0 a3.25 3.25 0 1 0 -6.5 0zM1231.75 559 a3.25 3.25 0 1 0 6.5 0 a3.25 3.25 0 1 0 -6.5 0z" fill="black"></path><path d="M633.75 273 a3.25 3.25 0 1 0 6.5 0 a3.25 3.25 0 1 0 -6.5 0zM139.75 13 a3.25 3.25 0 1 0 6.5 0 a3.25 3.25 0 1 0 -6.5 0z" fill="black"></path><path d="M425.75 559 a3.25 3.25 0 1 0 6.5 0 a3.25 3.25 0 1 0 -6.5 0zM9.75 143 a3.25 3.25 0 1 0 6.5 0 a3.25 3.25 0 1 0 -6.5 0z" fill="black"></path><path d="M789.75 91 a3.25 3.25 0 1 0 6.5 0 a3.25 3.25 0 1 0 -6.5 0zM1049.75 533 a3.25 3.25 0 1 0 6.5 0 a3.25 3.25 0 1 0 -6.5 0z" fill="black"></path><path d="M503.75 559 a3.25 3.25 0 1 0 6.5 0 a3.25 3.25 0 1 0 -6.5 0zM997.75 481 a3.25 3.25 0 1 0 6.5 0 a3.25 3.25 0 1 0 -6.5 0z" fill="black"></path><path d="M1101.75 169 a3.25 3.25 0 1 0 6.5 0 a3.25 3.25 0 1 0 -6.5 0zM607.75 13 a3.25 3.25 0 1 0 6.5 0 a3.25 3.25 0 1 0 -6.5 0z" fill="black"></path><path d="M529.75 39 a3.25 3.25 0 1 0 6.5 0 a3.25 3.25 0 1 0 -6.5 0zM1023.75 403 a3.25 3.25 0 1 0 6.5 0 a3.25 3.25 0 1 0 -6.5 0z" fill="black"></path><path d="M1075.75 39 a3.25 3.25 0 1 0 6.5 0 a3.25 3.25 0 1 0 -6.5 0zM763.75 13 a3.25 3.25 0 1 0 6.5 0 a3.25 3.25 0 1 0 -6.5 0z" fill="black"></path><path d="M1413.75 117 a3.25 3.25 0 1 0 6.5 0 a3.25 3.25 0 1 0 -6.5 0zM1439.75 377 a3.25 3.25 0 1 0 6.5 0 a3.25 3.25 0 1 0 -6.5 0z" fill="black"></path><path d="M35.75 481 a3.25 3.25 0 1 0 6.5 0 a3.25 3.25 0 1 0 -6.5 0zM9.75 559 a3.25 3.25 0 1 0 6.5 0 a3.25 3.25 0 1 0 -6.5 0z" fill="black"></path><path d="M191.75 559 a3.25 3.25 0 1 0 6.5 0 a3.25 3.25 0 1 0 -6.5 0zM9.75 169 a3.25 3.25 0 1 0 6.5 0 a3.25 3.25 0 1 0 -6.5 0z" fill="black"></path><path d="M685.75 455 a3.25 3.25 0 1 0 6.5 0 a3.25 3.25 0 1 0 -6.5 0zM1023.75 533 a3.25 3.25 0 1 0 6.5 0 a3.25 3.25 0 1 0 -6.5 0z" fill="black"></path><path d="M1075.75 377 a3.25 3.25 0 1 0 6.5 0 a3.25 3.25 0 1 0 -6.5 0zM1075.75 533 a3.25 3.25 0 1 0 6.5 0 a3.25 3.25 0 1 0 -6.5 0z" fill="black"></path><path d="M477.75 403 a3.25 3.25 0 1 0 6.5 0 a3.25 3.25 0 1 0 -6.5 0zM607.75 273 a3.25 3.25 0 1 0 6.5 0 a3.25 3.25 0 1 0 -6.5 0z" fill="black"></path><path d="M165.75 247 a3.25 3.25 0 1 0 6.5 0 a3.25 3.25 0 1 0 -6.5 0zM243.75 143 a3.25 3.25 0 1 0 6.5 0 a3.25 3.25 0 1 0 -6.5 0z" fill="black"></path><path d="M399.75 247 a3.25 3.25 0 1 0 6.5 0 a3.25 3.25 0 1 0 -6.5 0zM87.75 39 a3.25 3.25 0 1 0 6.5 0 a3.25 3.25 0 1 0 -6.5 0z" fill="black"></path><path d="M1309.75 39 a3.25 3.25 0 1 0 6.5 0 a3.25 3.25 0 1 0 -6.5 0zM1439.75 39 a3.25 3.25 0 1 0 6.5 0 a3.25 3.25 0 1 0 -6.5 0z" fill="black"></path><path d="M139.75 169 a3.25 3.25 0 1 0 6.5 0 a3.25 3.25 0 1 0 -6.5 0zM139.75 247 a3.25 3.25 0 1 0 6.5 0 a3.25 3.25 0 1 0 -6.5 0z" fill="black"></path><path d="M581.75 195 a3.25 3.25 0 1 0 6.5 0 a3.25 3.25 0 1 0 -6.5 0zM529.75 455 a3.25 3.25 0 1 0 6.5 0 a3.25 3.25 0 1 0 -6.5 0z" fill="black"></path><path d="M1075.75 143 a3.25 3.25 0 1 0 6.5 0 a3.25 3.25 0 1 0 -6.5 0zM997.75 143 a3.25 3.25 0 1 0 6.5 0 a3.25 3.25 0 1 0 -6.5 0z" fill="black"></path><path d="M503.75 507 a3.25 3.25 0 1 0 6.5 0 a3.25 3.25 0 1 0 -6.5 0zM555.75 481 a3.25 3.25 0 1 0 6.5 0 a3.25 3.25 0 1 0 -6.5 0z" fill="black"></path><path d="M243.75 325 a3.25 3.25 0 1 0 6.5 0 a3.25 3.25 0 1 0 -6.5 0zM269.75 169 a3.25 3.25 0 1 0 6.5 0 a3.25 3.25 0 1 0 -6.5 0z" fill="black"></path><path d="M1309.75 169 a3.25 3.25 0 1 0 6.5 0 a3.25 3.25 0 1 0 -6.5 0zM1439.75 65 a3.25 3.25 0 1 0 6.5 0 a3.25 3.25 0 1 0 -6.5 0z" fill="black"></path><path d="M1127.75 455 a3.25 3.25 0 1 0 6.5 0 a3.25 3.25 0 1 0 -6.5 0zM1179.75 13 a3.25 3.25 0 1 0 6.5 0 a3.25 3.25 0 1 0 -6.5 0z" fill="black"></path><path d="M269.75 195 a3.25 3.25 0 1 0 6.5 0 a3.25 3.25 0 1 0 -6.5 0zM243.75 351 a3.25 3.25 0 1 0 6.5 0 a3.25 3.25 0 1 0 -6.5 0z" fill="black"></path><path d="M607.75 533 a3.25 3.25 0 1 0 6.5 0 a3.25 3.25 0 1 0 -6.5 0zM529.75 559 a3.25 3.25 0 1 0 6.5 0 a3.25 3.25 0 1 0 -6.5 0z" fill="black"></path><path d="M867.75 247 a3.25 3.25 0 1 0 6.5 0 a3.25 3.25 0 1 0 -6.5 0zM399.75 13 a3.25 3.25 0 1 0 6.5 0 a3.25 3.25 0 1 0 -6.5 0z" fill="black"></path><path d="M1179.75 377 a3.25 3.25 0 1 0 6.5 0 a3.25 3.25 0 1 0 -6.5 0zM1101.75 533 a3.25 3.25 0 1 0 6.5 0 a3.25 3.25 0 1 0 -6.5 0z" fill="black"></path><path d="M971.75 507 a3.25 3.25 0 1 0 6.5 0 a3.25 3.25 0 1 0 -6.5 0zM581.75 507 a3.25 3.25 0 1 0 6.5 0 a3.25 3.25 0 1 0 -6.5 0z" fill="black"></path><path d="M685.75 273 a3.25 3.25 0 1 0 6.5 0 a3.25 3.25 0 1 0 -6.5 0zM321.75 299 a3.25 3.25 0 1 0 6.5 0 a3.25 3.25 0 1 0 -6.5 0z" fill="black"></path><path d="M1075.75 221 a3.25 3.25 0 1 0 6.5 0 a3.25 3.25 0 1 0 -6.5 0zM945.75 195 a3.25 3.25 0 1 0 6.5 0 a3.25 3.25 0 1 0 -6.5 0z" fill="black"></path><path d="M399.75 377 a3.25 3.25 0 1 0 6.5 0 a3.25 3.25 0 1 0 -6.5 0zM61.75 91 a3.25 3.25 0 1 0 6.5 0 a3.25 3.25 0 1 0 -6.5 0z" fill="black"></path><path d="M1127.75 507 a3.25 3.25 0 1 0 6.5 0 a3.25 3.25 0 1 0 -6.5 0zM1387.75 65 a3.25 3.25 0 1 0 6.5 0 a3.25 3.25 0 1 0 -6.5 0z" fill="black"></path><path d="M1257.75 169 a3.25 3.25 0 1 0 6.5 0 a3.25 3.25 0 1 0 -6.5 0zM1439.75 481 a3.25 3.25 0 1 0 6.5 0 a3.25 3.25 0 1 0 -6.5 0z" fill="black"></path><path d="M113.75 403 a3.25 3.25 0 1 0 6.5 0 a3.25 3.25 0 1 0 -6.5 0zM165.75 559 a3.25 3.25 0 1 0 6.5 0 a3.25 3.25 0 1 0 -6.5 0z" fill="black"></path><path d="M1283.75 143 a3.25 3.25 0 1 0 6.5 0 a3.25 3.25 0 1 0 -6.5 0zM1387.75 91 a3.25 3.25 0 1 0 6.5 0 a3.25 3.25 0 1 0 -6.5 0z" fill="black"></path><path d="M347.75 377 a3.25 3.25 0 1 0 6.5 0 a3.25 3.25 0 1 0 -6.5 0zM295.75 377 a3.25 3.25 0 1 0 6.5 0 a3.25 3.25 0 1 0 -6.5 0z" fill="black"></path><path d="M1023.75 299 a3.25 3.25 0 1 0 6.5 0 a3.25 3.25 0 1 0 -6.5 0zM1101.75 273 a3.25 3.25 0 1 0 6.5 0 a3.25 3.25 0 1 0 -6.5 0z" fill="black"></path><path d="M659.75 91 a3.25 3.25 0 1 0 6.5 0 a3.25 3.25 0 1 0 -6.5 0zM659.75 39 a3.25 3.25 0 1 0 6.5 0 a3.25 3.25 0 1 0 -6.5 0z" fill="black"></path><path d="M399.75 481 a3.25 3.25 0 1 0 6.5 0 a3.25 3.25 0 1 0 -6.5 0zM503.75 481 a3.25 3.25 0 1 0 6.5 0 a3.25 3.25 0 1 0 -6.5 0z" fill="black"></path><path d="M321.75 507 a3.25 3.25 0 1 0 6.5 0 a3.25 3.25 0 1 0 -6.5 0zM217.75 533 a3.25 3.25 0 1 0 6.5 0 a3.25 3.25 0 1 0 -6.5 0z" fill="black"></path><path d="M269.75 559 a3.25 3.25 0 1 0 6.5 0 a3.25 3.25 0 1 0 -6.5 0zM217.75 559 a3.25 3.25 0 1 0 6.5 0 a3.25 3.25 0 1 0 -6.5 0z" fill="black"></path><path d="M555.75 169 a3.25 3.25 0 1 0 6.5 0 a3.25 3.25 0 1 0 -6.5 0zM477.75 39 a3.25 3.25 0 1 0 6.5 0 a3.25 3.25 0 1 0 -6.5 0z" fill="black"></path><path d="M217.75 429 a3.25 3.25 0 1 0 6.5 0 a3.25 3.25 0 1 0 -6.5 0zM217.75 507 a3.25 3.25 0 1 0 6.5 0 a3.25 3.25 0 1 0 -6.5 0z" fill="black"></path><path d="M165.75 143 a3.25 3.25 0 1 0 6.5 0 a3.25 3.25 0 1 0 -6.5 0zM165.75 221 a3.25 3.25 0 1 0 6.5 0 a3.25 3.25 0 1 0 -6.5 0z" fill="black"></path><path d="M893.75 403 a3.25 3.25 0 1 0 6.5 0 a3.25 3.25 0 1 0 -6.5 0zM711.75 455 a3.25 3.25 0 1 0 6.5 0 a3.25 3.25 0 1 0 -6.5 0z" fill="black"></path><path d="M1231.75 455 a3.25 3.25 0 1 0 6.5 0 a3.25 3.25 0 1 0 -6.5 0zM1205.75 533 a3.25 3.25 0 1 0 6.5 0 a3.25 3.25 0 1 0 -6.5 0z" fill="black"></path><path d="M269.75 455 a3.25 3.25 0 1 0 6.5 0 a3.25 3.25 0 1 0 -6.5 0zM321.75 481 a3.25 3.25 0 1 0 6.5 0 a3.25 3.25 0 1 0 -6.5 0z" fill="black"></path><path d="M1231.75 351 a3.25 3.25 0 1 0 6.5 0 a3.25 3.25 0 1 0 -6.5 0zM1439.75 403 a3.25 3.25 0 1 0 6.5 0 a3.25 3.25 0 1 0 -6.5 0z" fill="black"></path><path d="M35.75 221 a3.25 3.25 0 1 0 6.5 0 a3.25 3.25 0 1 0 -6.5 0zM9.75 455 a3.25 3.25 0 1 0 6.5 0 a3.25 3.25 0 1 0 -6.5 0z" fill="black"></path><path d="M477.75 351 a3.25 3.25 0 1 0 6.5 0 a3.25 3.25 0 1 0 -6.5 0zM425.75 143 a3.25 3.25 0 1 0 6.5 0 a3.25 3.25 0 1 0 -6.5 0z" fill="black"></path><path d="M1023.75 39 a3.25 3.25 0 1 0 6.5 0 a3.25 3.25 0 1 0 -6.5 0zM1075.75 247 a3.25 3.25 0 1 0 6.5 0 a3.25 3.25 0 1 0 -6.5 0z" fill="black"></path><path d="M373.75 195 a3.25 3.25 0 1 0 6.5 0 a3.25 3.25 0 1 0 -6.5 0zM373.75 65 a3.25 3.25 0 1 0 6.5 0 a3.25 3.25 0 1 0 -6.5 0z" fill="black"></path><path d="M243.75 507 a3.25 3.25 0 1 0 6.5 0 a3.25 3.25 0 1 0 -6.5 0zM295.75 507 a3.25 3.25 0 1 0 6.5 0 a3.25 3.25 0 1 0 -6.5 0z" fill="black"></path><path d="M789.75 117 a3.25 3.25 0 1 0 6.5 0 a3.25 3.25 0 1 0 -6.5 0zM685.75 39 a3.25 3.25 0 1 0 6.5 0 a3.25 3.25 0 1 0 -6.5 0z" fill="black"></path><path d="M113.75 65 a3.25 3.25 0 1 0 6.5 0 a3.25 3.25 0 1 0 -6.5 0zM191.75 65 a3.25 3.25 0 1 0 6.5 0 a3.25 3.25 0 1 0 -6.5 0z" fill="black"></path><path d="M113.75 455 a3.25 3.25 0 1 0 6.5 0 a3.25 3.25 0 1 0 -6.5 0zM35.75 247 a3.25 3.25 0 1 0 6.5 0 a3.25 3.25 0 1 0 -6.5 0z" fill="black"></path><path d="M971.75 195 a3.25 3.25 0 1 0 6.5 0 a3.25 3.25 0 1 0 -6.5 0zM1023.75 247 a3.25 3.25 0 1 0 6.5 0 a3.25 3.25 0 1 0 -6.5 0z" fill="black"></path><path d="M61.75 325 a3.25 3.25 0 1 0 6.5 0 a3.25 3.25 0 1 0 -6.5 0zM165.75 429 a3.25 3.25 0 1 0 6.5 0 a3.25 3.25 0 1 0 -6.5 0z" fill="black"></path><path d="M919.75 91 a3.25 3.25 0 1 0 6.5 0 a3.25 3.25 0 1 0 -6.5 0zM867.75 13 a3.25 3.25 0 1 0 6.5 0 a3.25 3.25 0 1 0 -6.5 0z" fill="black"></path><path d="M347.75 403 a3.25 3.25 0 1 0 6.5 0 a3.25 3.25 0 1 0 -6.5 0zM295.75 221 a3.25 3.25 0 1 0 6.5 0 a3.25 3.25 0 1 0 -6.5 0z" fill="black"></path><path d="M711.75 325 a3.25 3.25 0 1 0 6.5 0 a3.25 3.25 0 1 0 -6.5 0zM711.75 247 a3.25 3.25 0 1 0 6.5 0 a3.25 3.25 0 1 0 -6.5 0z" fill="black"></path><path d="M529.75 247 a3.25 3.25 0 1 0 6.5 0 a3.25 3.25 0 1 0 -6.5 0zM503.75 351 a3.25 3.25 0 1 0 6.5 0 a3.25 3.25 0 1 0 -6.5 0z" fill="black"></path><path d="M1049.75 117 a3.25 3.25 0 1 0 6.5 0 a3.25 3.25 0 1 0 -6.5 0zM1075.75 117 a3.25 3.25 0 1 0 6.5 0 a3.25 3.25 0 1 0 -6.5 0z" fill="black"></path><path d="M425.75 351 a3.25 3.25 0 1 0 6.5 0 a3.25 3.25 0 1 0 -6.5 0zM451.75 169 a3.25 3.25 0 1 0 6.5 0 a3.25 3.25 0 1 0 -6.5 0z" fill="black"></path><path d="M1101.75 195 a3.25 3.25 0 1 0 6.5 0 a3.25 3.25 0 1 0 -6.5 0zM1153.75 169 a3.25 3.25 0 1 0 6.5 0 a3.25 3.25 0 1 0 -6.5 0z" fill="black"></path><path d="M61.75 143 a3.25 3.25 0 1 0 6.5 0 a3.25 3.25 0 1 0 -6.5 0zM113.75 169 a3.25 3.25 0 1 0 6.5 0 a3.25 3.25 0 1 0 -6.5 0z" fill="black"></path><path d="M1205.75 455 a3.25 3.25 0 1 0 6.5 0 a3.25 3.25 0 1 0 -6.5 0zM1205.75 403 a3.25 3.25 0 1 0 6.5 0 a3.25 3.25 0 1 0 -6.5 0z" fill="black"></path><path d="M607.75 429 a3.25 3.25 0 1 0 6.5 0 a3.25 3.25 0 1 0 -6.5 0zM737.75 273 a3.25 3.25 0 1 0 6.5 0 a3.25 3.25 0 1 0 -6.5 0z" fill="black"></path><path d="M971.75 39 a3.25 3.25 0 1 0 6.5 0 a3.25 3.25 0 1 0 -6.5 0zM893.75 39 a3.25 3.25 0 1 0 6.5 0 a3.25 3.25 0 1 0 -6.5 0z" fill="black"></path><path d="M503.75 221 a3.25 3.25 0 1 0 6.5 0 a3.25 3.25 0 1 0 -6.5 0zM477.75 169 a3.25 3.25 0 1 0 6.5 0 a3.25 3.25 0 1 0 -6.5 0z" fill="black"></path><path d="M1101.75 299 a3.25 3.25 0 1 0 6.5 0 a3.25 3.25 0 1 0 -6.5 0zM1049.75 325 a3.25 3.25 0 1 0 6.5 0 a3.25 3.25 0 1 0 -6.5 0z" fill="black"></path><path d="M633.75 377 a3.25 3.25 0 1 0 6.5 0 a3.25 3.25 0 1 0 -6.5 0zM555.75 429 a3.25 3.25 0 1 0 6.5 0 a3.25 3.25 0 1 0 -6.5 0z" fill="black"></path><path d="M1413.75 169 a3.25 3.25 0 1 0 6.5 0 a3.25 3.25 0 1 0 -6.5 0zM1335.75 351 a3.25 3.25 0 1 0 6.5 0 a3.25 3.25 0 1 0 -6.5 0z" fill="black"></path><path d="M321.75 91 a3.25 3.25 0 1 0 6.5 0 a3.25 3.25 0 1 0 -6.5 0zM347.75 195 a3.25 3.25 0 1 0 6.5 0 a3.25 3.25 0 1 0 -6.5 0z" fill="black"></path><path d="M1413.75 143 a3.25 3.25 0 1 0 6.5 0 a3.25 3.25 0 1 0 -6.5 0zM1439.75 273 a3.25 3.25 0 1 0 6.5 0 a3.25 3.25 0 1 0 -6.5 0z" fill="black"></path><path d="M581.75 403 a3.25 3.25 0 1 0 6.5 0 a3.25 3.25 0 1 0 -6.5 0zM659.75 325 a3.25 3.25 0 1 0 6.5 0 a3.25 3.25 0 1 0 -6.5 0z" fill="black"></path><path d="M997.75 351 a3.25 3.25 0 1 0 6.5 0 a3.25 3.25 0 1 0 -6.5 0zM685.75 65 a3.25 3.25 0 1 0 6.5 0 a3.25 3.25 0 1 0 -6.5 0z" fill="black"></path><path d="M295.75 351 a3.25 3.25 0 1 0 6.5 0 a3.25 3.25 0 1 0 -6.5 0zM347.75 351 a3.25 3.25 0 1 0 6.5 0 a3.25 3.25 0 1 0 -6.5 0z" fill="black"></path><path d="M919.75 65 a3.25 3.25 0 1 0 6.5 0 a3.25 3.25 0 1 0 -6.5 0zM1023.75 65 a3.25 3.25 0 1 0 6.5 0 a3.25 3.25 0 1 0 -6.5 0z" fill="black"></path><path d="M555.75 91 a3.25 3.25 0 1 0 6.5 0 a3.25 3.25 0 1 0 -6.5 0zM685.75 195 a3.25 3.25 0 1 0 6.5 0 a3.25 3.25 0 1 0 -6.5 0z" fill="black"></path><path d="M1361.75 13 a3.25 3.25 0 1 0 6.5 0 a3.25 3.25 0 1 0 -6.5 0zM1257.75 13 a3.25 3.25 0 1 0 6.5 0 a3.25 3.25 0 1 0 -6.5 0z" fill="black"></path><path d="M1257.75 65 a3.25 3.25 0 1 0 6.5 0 a3.25 3.25 0 1 0 -6.5 0zM1205.75 39 a3.25 3.25 0 1 0 6.5 0 a3.25 3.25 0 1 0 -6.5 0z" fill="black"></path><path d="M1231.75 195 a3.25 3.25 0 1 0 6.5 0 a3.25 3.25 0 1 0 -6.5 0zM1179.75 299 a3.25 3.25 0 1 0 6.5 0 a3.25 3.25 0 1 0 -6.5 0z" fill="black"></path><path d="M555.75 117 a3.25 3.25 0 1 0 6.5 0 a3.25 3.25 0 1 0 -6.5 0zM503.75 91 a3.25 3.25 0 1 0 6.5 0 a3.25 3.25 0 1 0 -6.5 0z" fill="black"></path><path d="M87.75 481 a3.25 3.25 0 1 0 6.5 0 a3.25 3.25 0 1 0 -6.5 0zM61.75 559 a3.25 3.25 0 1 0 6.5 0 a3.25 3.25 0 1 0 -6.5 0z" fill="black"></path><path d="M425.75 273 a3.25 3.25 0 1 0 6.5 0 a3.25 3.25 0 1 0 -6.5 0zM425.75 325 a3.25 3.25 0 1 0 6.5 0 a3.25 3.25 0 1 0 -6.5 0z" fill="black"></path><path d="M1335.75 507 a3.25 3.25 0 1 0 6.5 0 a3.25 3.25 0 1 0 -6.5 0zM1439.75 507 a3.25 3.25 0 1 0 6.5 0 a3.25 3.25 0 1 0 -6.5 0z" fill="black"></path><path d="M1283.75 533 a3.25 3.25 0 1 0 6.5 0 a3.25 3.25 0 1 0 -6.5 0zM1413.75 533 a3.25 3.25 0 1 0 6.5 0 a3.25 3.25 0 1 0 -6.5 0z" fill="black"></path><path d="M347.75 65 a3.25 3.25 0 1 0 6.5 0 a3.25 3.25 0 1 0 -6.5 0zM295.75 91 a3.25 3.25 0 1 0 6.5 0 a3.25 3.25 0 1 0 -6.5 0z" fill="black"></path><path d="M1387.75 325 a3.25 3.25 0 1 0 6.5 0 a3.25 3.25 0 1 0 -6.5 0zM1439.75 351 a3.25 3.25 0 1 0 6.5 0 a3.25 3.25 0 1 0 -6.5 0z" fill="black"></path><path d="M893.75 351 a3.25 3.25 0 1 0 6.5 0 a3.25 3.25 0 1 0 -6.5 0zM789.75 377 a3.25 3.25 0 1 0 6.5 0 a3.25 3.25 0 1 0 -6.5 0z" fill="black"></path><path d="M139.75 533 a3.25 3.25 0 1 0 6.5 0 a3.25 3.25 0 1 0 -6.5 0zM139.75 455 a3.25 3.25 0 1 0 6.5 0 a3.25 3.25 0 1 0 -6.5 0z" fill="black"></path><path d="M113.75 377 a3.25 3.25 0 1 0 6.5 0 a3.25 3.25 0 1 0 -6.5 0zM61.75 377 a3.25 3.25 0 1 0 6.5 0 a3.25 3.25 0 1 0 -6.5 0z" fill="black"></path><path d="M685.75 403 a3.25 3.25 0 1 0 6.5 0 a3.25 3.25 0 1 0 -6.5 0zM633.75 429 a3.25 3.25 0 1 0 6.5 0 a3.25 3.25 0 1 0 -6.5 0z" fill="black"></path><path d="M1335.75 247 a3.25 3.25 0 1 0 6.5 0 a3.25 3.25 0 1 0 -6.5 0zM1387.75 247 a3.25 3.25 0 1 0 6.5 0 a3.25 3.25 0 1 0 -6.5 0z" fill="black"></path><path d="M1361.75 455 a3.25 3.25 0 1 0 6.5 0 a3.25 3.25 0 1 0 -6.5 0zM1439.75 429 a3.25 3.25 0 1 0 6.5 0 a3.25 3.25 0 1 0 -6.5 0z" fill="black"></path><path d="M945.75 377 a3.25 3.25 0 1 0 6.5 0 a3.25 3.25 0 1 0 -6.5 0zM997.75 455 a3.25 3.25 0 1 0 6.5 0 a3.25 3.25 0 1 0 -6.5 0z" fill="black"></path><path d="M737.75 117 a3.25 3.25 0 1 0 6.5 0 a3.25 3.25 0 1 0 -6.5 0zM815.75 169 a3.25 3.25 0 1 0 6.5 0 a3.25 3.25 0 1 0 -6.5 0z" fill="black"></path><path d="M607.75 559 a3.25 3.25 0 1 0 6.5 0 a3.25 3.25 0 1 0 -6.5 0zM919.75 533 a3.25 3.25 0 1 0 6.5 0 a3.25 3.25 0 1 0 -6.5 0z" fill="black"></path><path d="M243.75 429 a3.25 3.25 0 1 0 6.5 0 a3.25 3.25 0 1 0 -6.5 0zM217.75 377 a3.25 3.25 0 1 0 6.5 0 a3.25 3.25 0 1 0 -6.5 0z" fill="black"></path><path d="M945.75 91 a3.25 3.25 0 1 0 6.5 0 a3.25 3.25 0 1 0 -6.5 0zM997.75 91 a3.25 3.25 0 1 0 6.5 0 a3.25 3.25 0 1 0 -6.5 0z" fill="black"></path><path d="M451.75 507 a3.25 3.25 0 1 0 6.5 0 a3.25 3.25 0 1 0 -6.5 0zM477.75 559 a3.25 3.25 0 1 0 6.5 0 a3.25 3.25 0 1 0 -6.5 0z" fill="black"></path><path d="M1101.75 91 a3.25 3.25 0 1 0 6.5 0 a3.25 3.25 0 1 0 -6.5 0zM1179.75 91 a3.25 3.25 0 1 0 6.5 0 a3.25 3.25 0 1 0 -6.5 0z" fill="black"></path><path d="M893.75 377 a3.25 3.25 0 1 0 6.5 0 a3.25 3.25 0 1 0 -6.5 0zM971.75 455 a3.25 3.25 0 1 0 6.5 0 a3.25 3.25 0 1 0 -6.5 0z" fill="black"></path><path d="M867.75 377 a3.25 3.25 0 1 0 6.5 0 a3.25 3.25 0 1 0 -6.5 0zM815.75 377 a3.25 3.25 0 1 0 6.5 0 a3.25 3.25 0 1 0 -6.5 0z" fill="black"></path><path d="M1439.75 143 a3.25 3.25 0 1 0 6.5 0 a3.25 3.25 0 1 0 -6.5 0zM1439.75 91 a3.25 3.25 0 1 0 6.5 0 a3.25 3.25 0 1 0 -6.5 0z" fill="black"></path><path d="M1387.75 169 a3.25 3.25 0 1 0 6.5 0 a3.25 3.25 0 1 0 -6.5 0zM1387.75 221 a3.25 3.25 0 1 0 6.5 0 a3.25 3.25 0 1 0 -6.5 0z" fill="black"></path><path d="M1075.75 195 a3.25 3.25 0 1 0 6.5 0 a3.25 3.25 0 1 0 -6.5 0zM997.75 195 a3.25 3.25 0 1 0 6.5 0 a3.25 3.25 0 1 0 -6.5 0z" fill="black"></path><path d="M1153.75 117 a3.25 3.25 0 1 0 6.5 0 a3.25 3.25 0 1 0 -6.5 0zM1101.75 117 a3.25 3.25 0 1 0 6.5 0 a3.25 3.25 0 1 0 -6.5 0z" fill="black"></path><path d="M789.75 533 a3.25 3.25 0 1 0 6.5 0 a3.25 3.25 0 1 0 -6.5 0zM867.75 533 a3.25 3.25 0 1 0 6.5 0 a3.25 3.25 0 1 0 -6.5 0z" fill="black"></path><path d="M607.75 169 a3.25 3.25 0 1 0 6.5 0 a3.25 3.25 0 1 0 -6.5 0zM555.75 143 a3.25 3.25 0 1 0 6.5 0 a3.25 3.25 0 1 0 -6.5 0z" fill="black"></path><path d="M139.75 559 a3.25 3.25 0 1 0 6.5 0 a3.25 3.25 0 1 0 -6.5 0zM87.75 559 a3.25 3.25 0 1 0 6.5 0 a3.25 3.25 0 1 0 -6.5 0z" fill="black"></path><path d="M919.75 13 a3.25 3.25 0 1 0 6.5 0 a3.25 3.25 0 1 0 -6.5 0zM971.75 13 a3.25 3.25 0 1 0 6.5 0 a3.25 3.25 0 1 0 -6.5 0z" fill="black"></path></mask></defs></svg>